<svg width="30" height="29" viewBox="0 0 30 29" fill="none" xmlns="http://www.w3.org/2000/svg">
<path d="M0 5.58607C0 4.59997 0.957589 3.80328 2.14286 3.80328H27.8571C29.0424 3.80328 30 4.59997 30 5.58607C30 6.57217 29.0424 7.36886 27.8571 7.36886H2.14286C0.957589 7.36886 0 6.57217 0 5.58607ZM0 14.5C0 13.5139 0.957589 12.7172 2.14286 12.7172H27.8571C29.0424 12.7172 30 13.5139 30 14.5C30 15.4861 29.0424 16.2828 27.8571 16.2828H2.14286C0.957589 16.2828 0 15.4861 0 14.5ZM30 23.4139C30 24.4 29.0424 25.1967 27.8571 25.1967H2.14286C0.957589 25.1967 0 24.4 0 23.4139C0 22.4278 0.957589 21.6312 2.14286 21.6312H27.8571C29.0424 21.6312 30 22.4278 30 23.4139Z" fill="#3498DB"/>
</svg>
