<svg width="28" height="24" viewBox="0 0 28 24" fill="none" xmlns="http://www.w3.org/2000/svg">
<g clip-path="url(#clip0_13_112)">
<path d="M27.9903 11.9766C27.9903 12.8203 27.2611 13.4813 26.4347 13.4813H24.8792L24.9132 20.9906C24.9132 21.1172 24.9035 21.2437 24.8889 21.3703V22.125C24.8889 23.1609 24.0188 24 22.9444 24H22.1667C22.1132 24 22.0597 24 22.0063 23.9953C21.9382 24 21.8701 24 21.8021 24H20.2222H19.0556C17.9813 24 17.1111 23.1609 17.1111 22.125V21V18C17.1111 17.1703 16.416 16.5 15.5556 16.5H12.4444C11.584 16.5 10.8889 17.1703 10.8889 18V21V22.125C10.8889 23.1609 10.0188 24 8.94444 24H7.77778H6.22708C6.15417 24 6.08125 23.9953 6.00833 23.9906C5.95 23.9953 5.89167 24 5.83333 24H5.05556C3.98125 24 3.11111 23.1609 3.11111 22.125V16.875C3.11111 16.8328 3.11111 16.7859 3.11597 16.7438V13.4813H1.55556C0.680556 13.4813 0 12.825 0 11.9766C0 11.5547 0.145833 11.1797 0.486111 10.8516L12.95 0.375C13.2903 0.046875 13.6792 0 14.0194 0C14.3597 0 14.7486 0.09375 15.0403 0.328125L27.4556 10.8516C27.8444 11.1797 28.0389 11.5547 27.9903 11.9766Z" fill="#3498DB"/>
</g>
<defs>
<clipPath id="clip0_13_112">
<rect width="28" height="24" fill="white"/>
</clipPath>
</defs>
</svg>
