<svg width="24" height="20" viewBox="0 0 24 20" fill="none" xmlns="http://www.w3.org/2000/svg">
<g clip-path="url(#clip0_13_109)">
<path d="M7.72969 0.960842C7.36875 0.234279 6.41719 -0.15244 5.50781 0.0545917L1.38281 0.992092C0.567188 1.17959 0 1.79678 0 2.4999C0 12.164 9.40313 19.9999 21 19.9999C21.8438 19.9999 22.5844 19.5273 22.8094 18.8476L23.9344 15.4101C24.1828 14.6522 23.7188 13.8593 22.8469 13.5585L18.3469 11.996C17.5828 11.7304 16.6969 11.914 16.1766 12.4491L14.2828 14.3749C10.9828 13.0741 8.31094 10.8476 6.75 8.09756L9.06094 6.52334C9.70312 6.08584 9.92344 5.35147 9.60469 4.71475L7.72969 0.964748V0.960842Z" fill="#3498DB"/>
</g>
<defs>
<clipPath id="clip0_13_109">
<rect width="24" height="20" fill="white"/>
</clipPath>
</defs>
</svg>
