<svg width="35" height="36" viewBox="0 0 35 36" fill="none" xmlns="http://www.w3.org/2000/svg">
<path d="M14.0456 3.66329C12.5143 2.74923 10.6367 2.25001 8.70443 2.25001C3.89193 2.25001 0 5.25236 0 8.96486V9.40079C0 10.5117 0.33724 11.6016 0.97526 12.6L3.11719 15.9117C3.52734 16.5375 3.8099 17.2055 3.97396 17.8945L7.32812 32.3578C7.51042 33.1453 8.38542 33.7219 9.41536 33.75C10.4453 33.7781 11.3659 33.2297 11.6029 32.4563L14.237 23.9274C14.6016 22.7602 15.9505 21.9375 17.5 21.9375C19.0495 21.9375 20.3984 22.7602 20.763 23.9274L23.3971 32.4563C23.6341 33.2367 24.5547 33.7781 25.5846 33.75C26.6146 33.7219 27.4896 33.1453 27.6719 32.3578L31.0169 17.8875C31.181 17.1984 31.4635 16.5305 31.8737 15.9047L34.0156 12.593C34.6628 11.6016 34.9909 10.5047 34.9909 9.39376V9.24611C34.9909 5.37892 30.9258 2.24298 25.9128 2.24298C23.7161 2.24298 21.5924 2.86173 19.9336 3.97267L19.6419 4.16954L21.4193 5.23829C22.0573 5.61798 22.1667 6.32814 21.6745 6.82032C21.1823 7.31251 20.2617 7.39689 19.6237 7.0172L17.3997 5.68126L14.0273 3.65626L14.0456 3.66329Z" fill="#3498DB"/>
</svg>
